<svg width="21" height="18" viewBox="0 0 21 18" fill="none" xmlns="http://www.w3.org/2000/svg">
<path d="M1.23303 0L0 1.27L1.41606 2.74C1.00183 3 0.587615 3.29 0.192661 3.6L1.92661 6C2.43716 5.6 2.96697 5.25 3.52569 4.93L5.67385 7.16C4.96101 7.5 4.27706 7.91 3.66055 8.4L5.3945 10.8C6.14587 10.22 6.99358 9.77 7.89908 9.47L10.3555 12C9.15138 12.07 8.03395 12.5 7.12844 13.2L10.5963 18L12.9661 14.73L16.1257 18L17.3395 16.72L1.23303 0ZM10.5963 0C8.52523 0 6.55046 0.38 4.72018 1.07L7.02248 3.47C8.18807 3.16 9.3633 3 10.5963 3C13.8523 3 16.8578 4.11 19.2661 6L21 3.6C18.1005 1.34 14.5073 0 10.5963 0ZM10.5963 6C10.2303 6 9.87385 6 9.51743 6.05L12.5904 9.25C13.7656 9.53 14.8638 10.07 15.7982 10.8L17.5321 8.4C15.6055 6.89 13.1972 6 10.5963 6Z" fill="currentColor"/>
</svg>
