<svg width="64" height="47" viewBox="0 0 64 47" fill="none" xmlns="http://www.w3.org/2000/svg">
<path d="M52.2679 11.5764L40.7887 23.0557H49.3981C49.3981 27.6224 47.584 32.0021 44.3548 35.2312C41.1257 38.4604 36.746 40.2745 32.1793 40.2745C29.3094 40.2745 26.5257 39.5571 24.1438 38.2657L19.9539 42.4556C23.4837 44.694 27.6737 46.0142 32.1793 46.0142C38.2682 46.0142 44.1078 43.5953 48.4134 39.2898C52.7189 34.9842 55.1378 29.1446 55.1378 23.0557H63.7472L52.2679 11.5764ZM14.9604 23.0557C14.9604 18.4889 16.7745 14.1092 20.0037 10.8801C23.2328 7.65092 27.6125 5.83679 32.1793 5.83679C35.0491 5.83679 37.8328 6.55424 40.2147 7.84566L44.4047 3.65573C40.8748 1.41728 36.6849 0.097168 32.1793 0.097168C26.0903 0.097168 20.2507 2.516 15.9452 6.82156C11.6396 11.1271 9.22076 16.9667 9.22076 23.0557H0.611328L12.0906 34.5349L23.5698 23.0557" fill="currentColor"/>
</svg>
