<svg width="11" height="15" viewBox="0 0 11 15" fill="none" xmlns="http://www.w3.org/2000/svg">
<path d="M5.5 0C6.12515 0 6.7247 0.249529 7.16675 0.693695C7.6088 1.13786 7.85714 1.74028 7.85714 2.36842V7.10526C7.85714 7.73341 7.6088 8.33582 7.16675 8.77999C6.7247 9.22416 6.12515 9.47368 5.5 9.47368C4.87485 9.47368 4.2753 9.22416 3.83325 8.77999C3.3912 8.33582 3.14286 7.73341 3.14286 7.10526V2.36842C3.14286 1.74028 3.3912 1.13786 3.83325 0.693695C4.2753 0.249529 4.87485 0 5.5 0ZM11 7.10526C11 9.89211 8.94929 12.1895 6.28571 12.5763V15H4.71429V12.5763C2.05071 12.1895 0 9.89211 0 7.10526H1.57143C1.57143 8.15217 1.98533 9.1562 2.72208 9.89647C3.45883 10.6367 4.45808 11.0526 5.5 11.0526C6.54192 11.0526 7.54117 10.6367 8.27792 9.89647C9.01467 9.1562 9.42857 8.15217 9.42857 7.10526H11Z" fill="#3A3A3A"/>
</svg>
