<?xml version="1.0" encoding="UTF-8"?>
<svg width="80px" height="80px" viewBox="0 0 80 80" version="1.1" xmlns="http://www.w3.org/2000/svg" xmlns:xlink="http://www.w3.org/1999/xlink">
    <title>assets/img/icon-error</title>
    <g id="App-Images" stroke="none" stroke-width="1" fill="none" fill-rule="evenodd">
        <g id="Group" transform="translate(3.400000, 9.500000)">
            <polygon id="Triangle" stroke="currentColor" stroke-width="4" fill="none" stroke-linejoin="round" points="36.6 0 73.2 61 -9.23705556e-14 61"></polygon>
            <path d="M39.8421875,41.421875 L40.8382812,22.9453125 L32.4007812,22.9453125 L33.396875,41.421875 L39.8421875,41.421875 Z M36.6,51.9882812 C37.8760417,51.9882812 38.8688802,51.6595052 39.5785156,51.0019531 C40.288151,50.344401 40.6429687,49.4296875 40.6429687,48.2578125 C40.6429687,47.0729167 40.3011719,46.1516927 39.6175781,45.4941406 C38.9339844,44.8365885 37.928125,44.5078125 36.6,44.5078125 C35.2588542,44.5078125 34.2367187,44.8365885 33.5335937,45.4941406 C32.8304687,46.1516927 32.4789062,47.0729167 32.4789062,48.2578125 C32.4789062,49.4296875 32.8434896,50.344401 33.5726562,51.0019531 C34.3018229,51.6595052 35.3109375,51.9882812 36.6,51.9882812 Z" fill="currentColor" fill-rule="nonzero"></path>
        </g>
    </g>
</svg>
