<svg width="90" height="58" viewBox="0 0 90 58" fill="none" xmlns="http://www.w3.org/2000/svg">
<g clip-path="url(#clip0)">
<path d="M74.2708 42.7902C78.0975 42.7902 81.2194 45.8427 81.2194 49.5846C81.2194 53.3264 78.0975 56.3791 74.2708 56.3791C70.444 56.3791 67.3222 53.3264 67.3222 49.5846C67.3222 45.8427 70.444 42.7902 74.2708 42.7902ZM74.2708 54.4096C76.9898 54.4096 79.2053 52.2433 79.2053 49.5846C79.2053 46.9259 76.9898 44.7595 74.2708 44.7595C71.5518 44.7595 69.3363 46.9259 69.3363 49.5846C69.3363 52.2433 71.5518 54.4096 74.2708 54.4096ZM28.5511 42.7902C32.3779 42.7902 35.4996 45.8427 35.4996 49.5846C35.4996 53.3264 32.3779 56.3791 28.5511 56.3791C24.7244 56.3791 21.6025 53.3264 21.6025 49.5846C21.6025 45.8427 24.7244 42.7902 28.5511 42.7902ZM28.5511 54.4096C31.2701 54.4096 33.4855 52.2433 33.4855 49.5846C33.4855 46.9259 31.2701 44.7595 28.5511 44.7595C25.8321 44.7595 23.6166 46.9259 23.6166 49.5846C23.6166 52.2433 25.8321 54.4096 28.5511 54.4096ZM37.6144 49.2892H65.3081C65.9123 49.2892 66.3151 49.6831 66.3151 50.2739C66.3151 50.8647 65.9123 51.2586 65.3081 51.2586H37.7151C37.1109 51.2586 36.7081 50.8647 36.7081 50.2739C36.7081 49.6831 37.1109 49.2892 37.6144 49.2892Z" fill="white"/>
<path d="M74.2716 46.1382C76.2857 46.1382 77.897 47.7137 77.897 49.6831C77.897 51.6524 76.2857 53.2281 74.2716 53.2281C72.2575 53.2281 70.6463 51.6524 70.6463 49.6831C70.6463 47.6152 72.2575 46.1382 74.2716 46.1382ZM74.2716 51.1601C75.178 51.1601 75.8829 50.4709 75.8829 49.5846C75.8829 48.6984 75.178 48.0091 74.2716 48.0091C73.3653 48.0091 72.6604 48.6984 72.6604 49.5846C72.6604 50.4709 73.3653 51.1601 74.2716 51.1601ZM28.5519 46.1382C30.566 46.1382 32.1772 47.7137 32.1772 49.6831C32.1772 51.6524 30.566 53.2281 28.5519 53.2281C26.5378 53.2281 24.9265 51.6524 24.9265 49.6831C25.0272 47.6152 26.6385 46.1382 28.5519 46.1382ZM28.5519 51.1601C29.4582 51.1601 30.1632 50.4709 30.1632 49.5846C30.1632 48.6984 29.4582 48.0091 28.5519 48.0091C27.6455 48.0091 26.9406 48.6984 26.9406 49.5846C27.0413 50.4709 27.7463 51.1601 28.5519 51.1601ZM13.3455 42.7902C17.1723 42.7902 20.2941 45.8427 20.2941 49.5846C20.2941 53.3264 17.1723 56.3791 13.3455 56.3791C9.5188 56.3791 6.39697 53.3264 6.39697 49.5846C6.39697 45.8427 9.5188 42.7902 13.3455 42.7902ZM13.3455 54.4096C16.0646 54.4096 18.28 52.2433 18.28 49.5846C18.28 46.9259 16.0646 44.7595 13.3455 44.7595C10.6265 44.7595 8.41106 46.9259 8.41106 49.5846C8.41106 52.2433 10.6265 54.4096 13.3455 54.4096Z" fill="white"/>
<path d="M13.348 46.1378C15.3621 46.1378 16.9733 47.7132 16.9733 49.6826C16.9733 51.652 15.3621 53.2274 13.348 53.2274C11.3339 53.2274 9.72266 51.652 9.72266 49.6826C9.82336 47.6148 11.4346 46.1378 13.348 46.1378ZM13.348 51.1596C14.2543 51.1596 14.9593 50.4703 14.9593 49.5841C14.9593 48.6979 14.2543 48.0087 13.348 48.0087C12.4417 48.0087 11.7367 48.6979 11.7367 49.5841C11.8374 50.4703 12.5424 51.1596 13.348 51.1596Z" fill="white"/>
<path d="M1.7638 37.3725H39.0244V2.02194C39.0244 1.62807 39.3265 1.23419 39.6286 1.13572C40.0314 1.03725 40.837 0.938778 42.1462 1.03725C45.973 1.33266 54.5328 9.8995 56.2448 11.672L64.6032 13.5428C65.0061 13.6413 65.2075 13.8383 65.3082 14.2322L69.0342 26.4424C74.3716 27.427 86.3554 29.7904 87.161 29.8889C88.7723 30.0857 88.873 32.3506 88.873 33.3353V50.3705C88.873 50.9613 88.4702 51.3552 87.8659 51.3552H83.6364C83.0321 51.3552 82.6293 50.9613 82.6293 50.3705C82.6293 49.7797 83.0321 49.3858 83.6364 49.3858H86.9596V48.1057H83.2335C82.6293 48.1057 82.2265 47.7118 82.2265 47.121C82.2265 46.5301 82.6293 46.1363 83.2335 46.1363H86.3554C85.8518 45.3486 85.0462 44.3639 83.6364 43.3791C81.1187 41.5082 76.1842 39.2434 67.423 39.2434C66.8187 39.2434 66.4159 38.8495 66.4159 38.2587C66.4159 37.668 66.8187 37.274 67.423 37.274C79.004 37.274 84.442 40.9174 87.0603 43.6746V38.4557H84.1399C83.6364 38.4557 83.2335 38.1603 83.1328 37.6679L82.3272 33.5322C82.2265 33.2368 82.3272 32.9414 82.5286 32.7444C82.73 32.5475 83.0321 32.3506 83.3342 32.3506H86.8589C86.8589 32.1536 86.7582 31.8582 86.7582 31.7597C84.442 31.3659 68.8328 28.3133 68.1279 28.2149C67.7251 28.1164 67.423 27.9194 67.3223 27.5255L63.6969 15.3153L55.6406 13.5428C55.4392 13.5428 55.2377 13.4445 55.137 13.2475C51.411 9.40716 44.5631 3.20358 42.1462 3.00664C41.7434 3.00664 41.4413 2.90817 41.1391 2.90817V38.2587C41.1391 38.8495 40.7363 39.2434 40.1321 39.2434H2.87155V49.1888H4.07999C4.68422 49.1888 5.08704 49.5827 5.08704 50.1735C5.08704 50.7644 4.68422 51.1582 4.07999 51.1582H1.86451C1.26028 51.1582 0.857463 50.7644 0.857463 50.1735V38.3572C0.756759 37.7664 1.15957 37.3725 1.7638 37.3725ZM84.8448 36.4863H86.9596V34.3199H84.442L84.8448 36.4863Z" fill="white"/>
<path d="M28.8982 24.1422H48.486" stroke="white" stroke-width="2.01409" stroke-linecap="round"/>
<path d="M21.2563 29.1774H41.4624" stroke="white" stroke-width="2.01409" stroke-linecap="round"/>
<path d="M57.286 37.5395C56.8851 37.5395 56.5216 37.77 56.3621 38.1276L54.5329 42.1918L52.7036 38.1276C52.5427 37.77 52.1791 37.5395 51.7798 37.5395L43.4226 37.5326C44.2043 38.534 45.4242 39.1233 46.7189 39.1233H51.0239C51.2682 39.1233 51.4894 39.2644 51.5872 39.4823L54.5329 46.0396L57.4785 39.4823C57.5763 39.2644 57.7975 39.1233 58.0433 39.1233H62.4287C63.7234 39.1233 64.9419 38.5354 65.7251 37.5326L57.286 37.5395Z" fill="#FFCD00" stroke="#FFCD00" stroke-width="2.01409"/>
</g>
<defs>
<clipPath id="clip0">
<rect width="88.6198" height="56.3944" fill="white" transform="translate(0.820312 0.795288)"/>
</clipPath>
</defs>
</svg>
