<?xml version="1.0" encoding="UTF-8"?>
<svg width="1024px" height="564px" viewBox="0 0 1024 564" version="1.1" xmlns="http://www.w3.org/2000/svg" xmlns:xlink="http://www.w3.org/1999/xlink">
    <title>assets/img/brand/combined-brand</title>
    <defs>
        <polygon id="path-1" points="0.505429787 0.131609781 192.695106 0.131609781 192.695106 126.844248 0.505429787 126.844248"></polygon>
    </defs>
    <g id="App-Images" stroke="none" stroke-width="1" fill="none" fill-rule="evenodd">
        <g id="combined-brand" transform="translate(0.000000, 0.500000)">
            <g id="variant-logo" transform="translate(109.000000, 177.000000)">
                <g id="Group-3" transform="translate(306.868085, 259.467283)">
                    <mask id="mask-2" fill="white">
                        <use xlink:href="#path-1"></use>
                    </mask>
                    <g id="Clip-2"></g>
                    <polyline id="Fill-1" fill="#6FA8B7" mask="url(#mask-2)" points="95.4070928 91.0849643 56.3662519 1.79693254 0.505429787 127.060993 192.695106 127.060993 135.076111 0.131609781 95.4070928 91.0849643"></polyline>
                </g>
                <path d="M501.888169,0.426264828 C487.382334,0.426264828 474.25921,9.02019724 468.450378,22.3102676 L402.267957,173.670406 L336.096368,22.3102676 C330.273094,9.02019724 317.149971,0.426264828 302.651357,0.426264828 L0.353800851,0.158946207 C28.6542587,37.4643434 72.7891098,59.3736331 119.591908,59.3736331 L275.336487,59.3736331 C284.185118,59.3736331 292.199791,64.6152455 295.734189,72.7395641 L402.267957,316.942349 L508.801726,72.7395641 C512.346955,64.6152455 520.350797,59.3736331 529.210259,59.3736331 L687.861059,59.3736331 C734.678298,59.3736331 778.795098,37.4643434 807.109997,0.158946207 L501.888169,0.426264828" id="Fill-4" fill="#FAC922"></path>
                <path d="M307.247157,132.842905 L283.719401,78.8517683 C282.325859,75.6620069 279.181363,73.5957062 275.693898,73.5957062 L56.0810451,73.5957062 L56.1027064,73.6282179 C84.4176051,110.933615 128.538015,132.842905 175.355254,132.842905 L307.247157,132.842905" id="Fill-6" fill="#4D7E91"></path>
                <path d="M339.269745,206.312177 L313.438672,147.064978 L111.837171,147.064978 L111.858832,147.101102 C140.173731,184.402887 184.294141,206.312177 231.11138,206.312177 L339.269745,206.312177" id="Fill-7" fill="#6FA8B7"></path>
                <path d="M528.809525,73.5957062 C525.32567,73.5957062 522.181174,75.6511697 520.791243,78.8445434 L497.238214,132.842905 L632.104933,132.842905 C678.911341,132.842905 723.038972,110.933615 751.34665,73.6282179 L751.368311,73.5957062 L528.809525,73.5957062" id="Fill-8" fill="#4D7E91"></path>
                <path d="M491.032259,147.064978 L465.186746,206.312177 L576.341586,206.312177 C623.158826,206.312177 667.279236,184.402887 695.594134,147.101102 L695.612186,147.064978 L491.032259,147.064978" id="Fill-9" fill="#6FA8B7"></path>
                <polyline id="Fill-10" fill="#4D7E91" points="430.756146 74.9142372 373.779769 74.9142372 402.267957 140.060508 430.756146 74.9142372"></polyline>
            </g>
            <g id="variant-name" fill="#8C918F">
                <polyline id="Fill-5" points="64.2849311 75.8430322 25.205117 0.229888614 0 0.229888614 64.2849311 124.771621 128.566367 0.229888614 103.357755 0.229888614 64.2849311 75.8430322"></polyline>
                <polyline id="Fill-11" points="194.294686 0.233341584 130.01325 124.775074 155.221862 124.775074 194.294686 49.1550248 233.371005 124.775074 258.579617 124.775074 194.294686 0.233341584"></polyline>
                <path d="M418.67335,34.0310149 C418.67335,24.7805074 414.891884,16.4174134 408.772338,10.188255 C402.645803,4.14210396 394.191674,0.405990099 384.821885,0.405990099 L305.232849,0.405990099 L305.232849,22.622401 L384.821885,22.6465718 C388.778096,22.6465718 391.486633,24.4213985 392.930021,25.8474752 C394.191674,27.0939975 396.351514,29.942698 396.351514,34.0310149 C396.351514,38.4784406 393.642977,42.5736634 389.505032,44.3519431 C388.065139,45.063255 386.440018,45.4154579 384.821885,45.4154579 L305.232849,45.4879703 L305.232849,124.947723 L327.743409,124.947723 L327.743409,67.6629455 L350.243484,67.6629455 C358.35162,67.6629455 365.372845,71.9308168 369.336046,78.3291708 L369.874258,79.3995916 L393.461243,124.947723 L418.67335,124.947723 L389.141564,67.3003837 C392.566552,66.9412748 395.799322,66.0573144 398.867832,64.6312376 C410.572205,59.2998515 418.67335,47.5528465 418.67335,34.0310149" id="Fill-12"></path>
                <polygon id="Fill-13" points="472.88602 124.768168 495.393085 124.768168 495.393085 0.226435644 472.88602 0.226435644"></polygon>
                <polyline id="Fill-14" points="606.684231 0.233341584 542.3993 124.775074 567.611407 124.775074 606.684231 49.1550248 645.757056 124.775074 670.965668 124.775074 606.684231 0.233341584"></polyline>
                <polyline id="Fill-15" points="821.333133 79.582599 717.790149 0.758193069 717.790149 124.951176 740.297214 124.951176 740.297214 46.1371287 843.843693 124.951176 843.843693 0.405990099 821.333133 0.233341584 821.333133 79.582599"></polyline>
                <polyline id="Fill-16" points="897.871134 0.405990099 897.871134 22.6465718 949.560496 22.6465718 949.560496 124.951176 972.064067 124.951176 972.064067 22.6465718 1023.74294 22.6465718 1023.74294 0.405990099 897.871134 0.405990099"></polyline>
            </g>
        </g>
    </g>
</svg>